<svg width="115" height="98" viewBox="0 0 115 98" fill="none" xmlns="http://www.w3.org/2000/svg">
<g clip-path="url(#clip0_27_128)">
<mask id="mask0_27_128" style="mask-type:luminance" maskUnits="userSpaceOnUse" x="0" y="0" width="103" height="99">
<path d="M0.259766 20.292C0.259766 9.2463 9.21407 0.291992 20.2598 0.291992H82.7058C93.7514 0.291992 102.706 9.2463 102.706 20.292V78.0005C102.706 89.0462 93.7514 98.0005 82.7057 98.0005H20.2598C9.21406 98.0005 0.259766 89.0462 0.259766 78.0005V20.292Z" fill="white"/>
</mask>
<g mask="url(#mask0_27_128)">
<path fill-rule="evenodd" clip-rule="evenodd" d="M102.706 20.292C102.706 9.2463 93.7514 0.291992 82.7057 0.291992H20.2598C9.21406 0.291992 0.259766 9.2463 0.259766 20.292V78.0005C0.259766 89.0462 9.21407 98.0005 20.2598 98.0005H82.7058C93.7514 98.0005 102.706 89.0462 102.706 78.0005V20.292ZM66.0386 62.0926C60.3945 67.4757 51.8202 68.9784 45.6248 64.2402C42.013 61.4778 38.7194 58.3543 35.8084 54.9261C30.8434 49.079 32.3579 40.5576 37.9087 35.2635C39.1039 34.1236 39.4454 32.5358 38.9758 31.1109C37.3565 26.4211 36.5351 21.5143 36.5427 16.5767C36.5427 14.3376 34.6219 12.5056 32.2741 12.5056H17.3341C14.9864 12.5056 13.0655 14.3376 13.0655 16.5767C13.0655 54.8052 45.5494 85.7869 85.6314 85.7869C87.9791 85.7869 89.9 83.9549 89.9 81.7157V67.5073C89.9 65.2681 87.9791 63.4361 85.6314 63.4361C80.3384 63.4361 75.1734 62.6219 70.3926 61.1155C68.8986 60.627 67.1911 60.9934 66.0386 62.0926Z" fill="#D99BFF"/>
</g>
</g>
<defs>
<clipPath id="clip0_27_128">
<rect width="114.739" height="97.7085" fill="white" transform="translate(0.259766 0.291992)"/>
</clipPath>
</defs>
</svg>
