<svg width="46" height="44" viewBox="0 0 46 44" fill="none" xmlns="http://www.w3.org/2000/svg">
<g id="ri:search-line">
<path id="Vector" d="M34.5596 30.4645L42.7687 38.3148L40.0566 40.909L31.8494 33.0568C28.7957 35.3984 24.9973 36.672 21.0835 36.6667C11.5615 36.6667 3.8335 29.2747 3.8335 20.1667C3.8335 11.0587 11.5615 3.66667 21.0835 3.66667C30.6055 3.66667 38.3335 11.0587 38.3335 20.1667C38.3391 23.9103 37.0076 27.5435 34.5596 30.4645ZM30.7147 29.1042C33.1472 26.7115 34.5057 23.5041 34.5002 20.1667C34.5002 13.0772 28.4952 7.33333 21.0835 7.33333C13.6717 7.33333 7.66683 13.0772 7.66683 20.1667C7.66683 27.2562 13.6717 33 21.0835 33C24.5727 33.0053 27.9258 31.7059 30.4272 29.3792L30.7147 29.1042Z" fill="#9747FF"/>
</g>
</svg>
