<svg width="143" height="28" viewBox="0 0 143 28" fill="none" xmlns="http://www.w3.org/2000/svg">
<path d="M128.486 0C120.481 0 114 6.272 114 14C114 21.728 120.481 28 128.486 28C136.504 28 143 21.728 143 14C143 6.272 136.504 0 128.486 0ZM139.331 10.024L132.067 9.422L129.167 2.828C133.822 3.094 137.736 6.006 139.331 10.024ZM128.5 8.484L130.081 12.068L134.111 12.404L131.052 14.966L131.966 18.788L128.5 16.772L125.035 18.788L125.948 14.98L122.889 12.418L126.92 12.082L128.5 8.484ZM127.833 2.828L124.933 9.436L117.654 10.038C119.249 6.006 123.164 3.08 127.833 2.828ZM116.9 14C116.9 13.104 117.016 12.236 117.234 11.396L122.729 15.988L121.12 22.638C119.801 21.5866 118.74 20.2673 118.01 18.7741C117.281 17.281 116.902 15.6509 116.9 14ZM128.486 25.2C126.281 25.2 124.223 24.584 122.468 23.548L128.5 20.034L134.532 23.548C132.712 24.6248 130.62 25.1964 128.486 25.2ZM135.881 22.638L134.285 15.974L139.781 11.382C139.97 12.222 140.1 13.104 140.1 14C140.1 17.472 138.447 20.58 135.881 22.638Z" fill="#FFD233"/>
<path d="M14.4855 0C6.4815 0 0 6.272 0 14C0 21.728 6.4815 28 14.4855 28C22.504 28 29 21.728 29 14C29 6.272 22.504 0 14.4855 0ZM25.3315 10.024L18.067 9.422L15.167 2.828C19.8215 3.094 23.7365 6.006 25.3315 10.024ZM14.5 8.484L16.0805 12.068L20.1115 12.404L17.052 14.966L17.9655 18.788L14.5 16.772L11.0345 18.788L11.948 14.98L8.8885 12.418L12.9195 12.082L14.5 8.484ZM13.833 2.828L10.933 9.436L3.654 10.038C5.249 6.006 9.164 3.08 13.833 2.828ZM2.9 14C2.9 13.104 3.016 12.236 3.2335 11.396L8.729 15.988L7.1195 22.638C5.8013 21.5866 4.73965 20.2673 4.01028 18.7741C3.28091 17.281 2.90181 15.6509 2.9 14ZM14.4855 25.2C12.2815 25.2 10.2225 24.584 8.468 23.548L14.5 20.034L20.532 23.548C18.7121 24.6248 16.62 25.1964 14.4855 25.2ZM21.8805 22.638L20.2855 15.974L25.781 11.382C25.9695 12.222 26.1 13.104 26.1 14C26.1 17.472 24.447 20.58 21.8805 22.638Z" fill="#FFD233"/>
<path d="M71.4855 0C63.4815 0 57 6.272 57 14C57 21.728 63.4815 28 71.4855 28C79.504 28 86 21.728 86 14C86 6.272 79.504 0 71.4855 0ZM82.3315 10.024L75.067 9.422L72.167 2.828C76.8215 3.094 80.7365 6.006 82.3315 10.024ZM71.5 8.484L73.0805 12.068L77.1115 12.404L74.052 14.966L74.9655 18.788L71.5 16.772L68.0345 18.788L68.948 14.98L65.8885 12.418L69.9195 12.082L71.5 8.484ZM70.833 2.828L67.933 9.436L60.654 10.038C62.249 6.006 66.164 3.08 70.833 2.828ZM59.9 14C59.9 13.104 60.016 12.236 60.2335 11.396L65.729 15.988L64.1195 22.638C62.8013 21.5866 61.7396 20.2673 61.0103 18.7741C60.2809 17.281 59.9018 15.6509 59.9 14ZM71.4855 25.2C69.2815 25.2 67.2225 24.584 65.468 23.548L71.5 20.034L77.532 23.548C75.7121 24.6248 73.62 25.1964 71.4855 25.2ZM78.8805 22.638L77.2855 15.974L82.781 11.382C82.9695 12.222 83.1 13.104 83.1 14C83.1 17.472 81.447 20.58 78.8805 22.638Z" fill="#FFD233"/>
</svg>
