<svg width="193" height="111" viewBox="0 0 193 111" fill="none" xmlns="http://www.w3.org/2000/svg">
<path fill-rule="evenodd" clip-rule="evenodd" d="M19.9811 73C20.2217 72.9997 20.456 73.0679 20.6494 73.1947C20.8429 73.3215 20.9852 73.5001 21.0555 73.7041L25.3797 86.2996L38.3097 90.4902C38.523 90.5594 38.7074 90.6845 38.8388 90.8487C38.9701 91.013 39.0421 91.2087 39.0453 91.4101C39.0485 91.6114 38.9826 91.8089 38.8565 91.9763C38.7303 92.1437 38.5499 92.2733 38.3389 92.3478L25.4941 96.8725L21.0555 110.079C20.9863 110.284 20.8444 110.463 20.6508 110.591C20.4573 110.719 20.2224 110.788 19.9811 110.788C19.7398 110.788 19.505 110.719 19.3114 110.591C19.1179 110.463 18.976 110.284 18.9068 110.079L14.4682 96.8725L1.62337 92.3478C1.41241 92.2733 1.23193 92.1437 1.10579 91.9763C0.97966 91.8089 0.913819 91.6114 0.916979 91.4101C0.920139 91.2087 0.992152 91.013 1.12349 90.8487C1.25483 90.6845 1.43931 90.5594 1.65252 90.4902L14.5826 86.2996L18.909 73.7041C18.9792 73.5004 19.1212 73.322 19.3142 73.1953C19.5072 73.0685 19.741 73.0001 19.9811 73ZM19.9811 77.4074L16.5653 87.3517C16.5146 87.4991 16.4261 87.634 16.3066 87.7458C16.1871 87.8577 16.0399 87.9433 15.8767 87.9961L5.18502 91.4647L15.8027 95.2038C15.96 95.2595 16.1011 95.346 16.2153 95.4569C16.3295 95.5678 16.4139 95.7003 16.4621 95.8442L19.9834 106.314L23.5002 95.8442C23.5484 95.7003 23.6328 95.5678 23.747 95.4569C23.8612 95.346 24.0023 95.2595 24.1596 95.2038L34.7772 91.4647L24.0856 88.0001C23.9223 87.9473 23.7752 87.8616 23.6557 87.7498C23.5362 87.638 23.4476 87.5031 23.397 87.3557L19.9811 77.4074Z" fill="white"/>
<path d="M37.3632 110.033C37.1389 110.033 36.9371 109.874 36.9147 109.675C36.5109 106.055 36.197 104.902 32.4514 104.583C32.2271 104.563 32.0477 104.384 32.0477 104.186C32.0477 103.987 32.2271 103.808 32.4514 103.788C36.2867 103.47 36.5109 102.594 36.9147 98.9747C36.9147 98.7758 37.1389 98.6167 37.3632 98.6167C37.5875 98.6167 37.7894 98.7758 37.8118 98.9747C38.2155 102.594 38.4622 103.47 42.2751 103.788C42.4994 103.808 42.6788 103.987 42.6788 104.186C42.6788 104.384 42.4994 104.563 42.2751 104.583C38.5071 104.902 38.2155 106.055 37.8118 109.695C37.8118 109.894 37.6099 110.053 37.3632 110.053V110.033Z" fill="white"/>
<path d="M76.088 57.024C73.6987 57.024 71.5653 56.5973 69.688 55.744C67.8533 54.848 66.424 53.6533 65.4 52.16C64.376 50.624 63.864 48.96 63.864 47.168C63.864 45.8453 64.1627 44.672 64.76 43.648C65.4 42.5813 66.1893 41.7707 67.128 41.216C68.1093 40.6187 69.0907 40.32 70.072 40.32C71.4373 40.32 72.4827 40.7467 73.208 41.6C73.9333 42.4107 74.296 43.3707 74.296 44.48C74.296 46.1867 73.3787 47.5093 71.544 48.448C70.264 48.9173 69.624 49.8133 69.624 51.136C69.624 52.1173 70.1573 53.0133 71.224 53.824C72.3333 54.592 73.8907 54.976 75.896 54.976C78.328 54.976 79.9067 53.8027 80.632 51.456C81.4 49.1093 81.784 45.9093 81.784 41.856C81.784 38.784 81.6133 36.352 81.272 34.56C80.9307 32.7253 80.312 31.36 79.416 30.464C78.52 29.568 77.24 29.12 75.576 29.12C74.7653 29.12 73.8053 29.4187 72.696 30.016C71.5867 30.5707 70.5627 31.36 69.624 32.384C68.728 33.3653 68.1307 34.4533 67.832 35.648H66.168V11.008L67.448 10.176C70.0933 11.7973 73.0373 12.608 76.28 12.608C77.944 12.608 79.7787 12.3307 81.784 11.776C83.832 11.1787 85.624 10.3893 87.16 9.408L88.312 10.56C86.0507 13.9307 83.192 16.4267 79.736 18.048C76.3227 19.6267 72.6533 20.416 68.728 20.416V30.4L69.112 30.528C70.264 29.3333 71.5013 28.4587 72.824 27.904C74.1467 27.3493 75.64 27.072 77.304 27.072C80.248 27.072 82.8293 27.6693 85.048 28.864C87.2667 30.0587 88.9733 31.7653 90.168 33.984C91.4053 36.2027 92.024 38.7627 92.024 41.664C92.024 44.7787 91.2987 47.5093 89.848 49.856C88.3973 52.16 86.456 53.9307 84.024 55.168C81.592 56.4053 78.9467 57.024 76.088 57.024ZM108.861 21.632H108.413V48.192C108.413 50.112 109.053 51.5627 110.333 52.544C111.656 53.4827 113.234 53.952 115.069 53.952V56H99.197V53.952C101.032 53.952 102.589 53.4827 103.869 52.544C105.192 51.5627 105.853 50.112 105.853 48.192V14.016C105.853 13.4187 105.746 13.0133 105.533 12.8C105.32 12.5867 104.914 12.48 104.317 12.48H99.197V10.432H114.493L126.205 41.92L134.781 10.432H151.037V12.48H146.557C146.002 12.48 145.597 12.5867 145.341 12.8C145.128 13.0133 145.021 13.4187 145.021 14.016V52.416C145.021 52.9707 145.128 53.376 145.341 53.632C145.597 53.8453 146.002 53.952 146.557 53.952H151.037V56H129.533V53.952H134.013C134.61 53.952 135.016 53.8453 135.229 53.632C135.442 53.376 135.549 52.9707 135.549 52.416V16L124.413 56.768H121.917L108.861 21.632Z" fill="white"/>
<path d="M78.96 101.288C78.176 101.288 77.552 101.088 77.088 100.688C76.624 100.272 76.392 99.672 76.392 98.888V96.992C76.392 96.544 76.288 96.192 76.08 95.936C75.872 95.664 75.608 95.528 75.288 95.528H74.04V100.04C74.04 100.184 74.064 100.288 74.112 100.352C74.176 100.4 74.28 100.424 74.424 100.424H75.192V101H69.96V100.424H70.872C71.016 100.424 71.112 100.4 71.16 100.352C71.224 100.288 71.256 100.184 71.256 100.04V90.584C71.256 90.44 71.224 90.344 71.16 90.296C71.112 90.232 71.016 90.2 70.872 90.2H69.96V89.624H75.192V90.2H74.424C74.28 90.2 74.176 90.232 74.112 90.296C74.064 90.344 74.04 90.44 74.04 90.584V94.856H75.552C75.888 94.856 76.136 94.728 76.296 94.472C76.456 94.216 76.536 93.88 76.536 93.464V91.832C76.536 91.032 76.744 90.416 77.16 89.984C77.592 89.552 78.104 89.336 78.696 89.336C79.272 89.336 79.728 89.504 80.064 89.84C80.4 90.176 80.568 90.624 80.568 91.184C80.568 91.632 80.408 92.008 80.088 92.312C79.784 92.6 79.448 92.744 79.08 92.744C78.728 92.744 78.432 92.648 78.192 92.456C77.952 92.248 77.832 91.968 77.832 91.616C77.832 91.408 77.912 91.184 78.072 90.944C78.2 90.768 78.264 90.624 78.264 90.512C78.264 90.368 78.184 90.296 78.024 90.296C77.8 90.296 77.608 90.424 77.448 90.68C77.288 90.92 77.208 91.296 77.208 91.808V93.464C77.208 93.832 77.16 94.136 77.064 94.376C76.968 94.6 76.8 94.792 76.56 94.952V95.072C77.392 95.184 78.032 95.472 78.48 95.936C78.944 96.4 79.176 97.112 79.176 98.072V99.632C79.176 100.064 79.352 100.28 79.704 100.28C79.992 100.28 80.2 100.064 80.328 99.632C80.456 99.184 80.52 98.632 80.52 97.976H81.144C81.144 99.032 80.984 99.848 80.664 100.424C80.36 101 79.792 101.288 78.96 101.288ZM83.9608 101.288C83.3528 101.288 82.8568 101.088 82.4728 100.688C82.1048 100.288 81.9208 99.816 81.9208 99.272C81.9208 98.776 82.0808 98.36 82.4008 98.024C82.7368 97.672 83.1288 97.496 83.5768 97.496C84.0088 97.496 84.3288 97.624 84.5368 97.88C84.7448 98.12 84.8488 98.376 84.8488 98.648C84.8488 98.936 84.7288 99.216 84.4888 99.488C84.4248 99.568 84.3688 99.648 84.3208 99.728C84.2888 99.792 84.2728 99.872 84.2728 99.968C84.2728 100.096 84.3048 100.192 84.3688 100.256C84.4488 100.304 84.5368 100.328 84.6328 100.328C84.9528 100.328 85.2488 100.032 85.5208 99.44C85.8088 98.832 85.9928 97.84 86.0728 96.464L86.2648 93.464C86.3288 92.424 86.3608 91.648 86.3608 91.136C86.3608 90.864 86.3128 90.64 86.2168 90.464C86.1368 90.288 85.9608 90.2 85.6888 90.2H84.8008V89.624H93.2008V90.2H92.2888C92.1448 90.2 92.0408 90.232 91.9768 90.296C91.9288 90.344 91.9048 90.44 91.9048 90.584V100.04C91.9048 100.184 91.9288 100.288 91.9768 100.352C92.0408 100.4 92.1448 100.424 92.2888 100.424H93.2008V101H87.8248V100.424H88.7368C88.8808 100.424 88.9768 100.4 89.0248 100.352C89.0888 100.288 89.1208 100.184 89.1208 100.04V90.584C89.1208 90.44 89.0888 90.344 89.0248 90.296C88.9768 90.232 88.8808 90.2 88.7368 90.2H88.1368C87.7528 90.2 87.4728 90.344 87.2968 90.632C87.1208 90.904 87.0168 91.336 86.9848 91.928L86.6728 96.656C86.5128 99.744 85.6088 101.288 83.9608 101.288ZM95.1319 100.424H96.0439C96.1879 100.424 96.2839 100.4 96.3319 100.352C96.3959 100.288 96.4279 100.184 96.4279 100.04V90.584C96.4279 90.44 96.3959 90.344 96.3319 90.296C96.2839 90.232 96.1879 90.2 96.0439 90.2H95.1319V89.624H100.364V90.2H99.5959C99.4519 90.2 99.3479 90.232 99.2839 90.296C99.2359 90.344 99.2119 90.44 99.2119 90.584V98.168L102.86 91.016V90.584C102.86 90.44 102.828 90.344 102.764 90.296C102.716 90.232 102.62 90.2 102.476 90.2H101.708V89.624H106.94V90.2H106.028C105.884 90.2 105.78 90.232 105.716 90.296C105.668 90.344 105.644 90.44 105.644 90.584V100.04C105.644 100.184 105.668 100.288 105.716 100.352C105.78 100.4 105.884 100.424 106.028 100.424H106.94V101H101.708V100.424H102.476C102.62 100.424 102.716 100.4 102.764 100.352C102.828 100.288 102.86 100.184 102.86 100.04V92.456L99.2119 99.608V100.04C99.2119 100.184 99.2359 100.288 99.2839 100.352C99.3479 100.4 99.4519 100.424 99.5959 100.424H100.364V101H95.1319V100.424ZM114.17 101.288C113.178 101.288 112.29 101.024 111.506 100.496C110.738 99.952 110.138 99.224 109.706 98.312C109.274 97.4 109.058 96.4 109.058 95.312C109.058 94.192 109.274 93.176 109.706 92.264C110.138 91.352 110.722 90.64 111.458 90.128C112.21 89.6 113.026 89.336 113.906 89.336C114.882 89.336 115.722 89.688 116.426 90.392C117.13 91.08 117.594 91.992 117.818 93.128C117.93 93.64 117.986 94.44 117.986 95.528H112.13C112.13 96.296 112.146 96.904 112.178 97.352C112.21 97.784 112.282 98.208 112.394 98.624C112.538 99.216 112.81 99.688 113.21 100.04C113.626 100.392 114.106 100.568 114.65 100.568C115.434 100.568 116.066 100.224 116.546 99.536C117.026 98.848 117.314 98.04 117.41 97.112H118.034C117.938 98.216 117.578 99.192 116.954 100.04C116.33 100.872 115.402 101.288 114.17 101.288ZM115.202 94.856C115.202 93.176 115.09 91.936 114.866 91.136C114.658 90.32 114.258 89.912 113.666 89.912C113.074 89.912 112.666 90.32 112.442 91.136C112.234 91.936 112.13 93.176 112.13 94.856H115.202ZM120.187 100.424H121.099C121.243 100.424 121.339 100.4 121.387 100.352C121.451 100.288 121.483 100.184 121.483 100.04V90.584C121.483 90.44 121.451 90.344 121.387 90.296C121.339 90.232 121.243 90.2 121.099 90.2H120.187V89.624H125.419V90.2H124.651C124.507 90.2 124.403 90.232 124.339 90.296C124.291 90.344 124.267 90.44 124.267 90.584V94.712H127.771V90.584C127.771 90.44 127.739 90.344 127.675 90.296C127.627 90.232 127.531 90.2 127.387 90.2H126.619V89.624H131.851V90.2H130.939C130.795 90.2 130.691 90.232 130.627 90.296C130.579 90.344 130.555 90.44 130.555 90.584V100.04C130.555 100.184 130.579 100.288 130.627 100.352C130.691 100.4 130.795 100.424 130.939 100.424H131.851V101H126.619V100.424H127.387C127.531 100.424 127.627 100.4 127.675 100.352C127.739 100.288 127.771 100.184 127.771 100.04V95.384H124.267V100.04C124.267 100.184 124.291 100.288 124.339 100.352C124.403 100.4 124.507 100.424 124.651 100.424H125.419V101H120.187V100.424ZM135.508 100.424H136.852C136.996 100.424 137.092 100.4 137.14 100.352C137.204 100.288 137.236 100.184 137.236 100.04V90.584C137.236 90.424 137.204 90.32 137.14 90.272C137.092 90.224 136.996 90.2 136.852 90.2C136.5 90.2 136.156 90.4 135.82 90.8C135.5 91.184 135.236 91.632 135.028 92.144C134.804 92.688 134.636 93.168 134.524 93.584C134.428 94 134.372 94.264 134.356 94.376H133.684L133.828 89.624H143.428L143.572 94.376H142.9C142.884 94.264 142.82 94 142.708 93.584C142.612 93.168 142.452 92.688 142.228 92.144C142.02 91.632 141.748 91.184 141.412 90.8C141.092 90.4 140.756 90.2 140.404 90.2C140.26 90.2 140.156 90.224 140.092 90.272C140.044 90.32 140.02 90.424 140.02 90.584V100.04C140.02 100.184 140.044 100.288 140.092 100.352C140.156 100.4 140.26 100.424 140.404 100.424H141.748V101H135.508V100.424ZM150.493 101.288C149.629 101.288 148.821 101.032 148.069 100.52C147.317 99.992 146.717 99.272 146.269 98.36C145.821 97.448 145.597 96.432 145.597 95.312C145.597 94.192 145.821 93.176 146.269 92.264C146.717 91.352 147.317 90.64 148.069 90.128C148.821 89.6 149.629 89.336 150.493 89.336C151.357 89.336 152.165 89.6 152.917 90.128C153.669 90.64 154.269 91.352 154.717 92.264C155.165 93.176 155.389 94.192 155.389 95.312C155.389 96.432 155.165 97.448 154.717 98.36C154.269 99.272 153.669 99.992 152.917 100.52C152.165 101.032 151.357 101.288 150.493 101.288ZM150.493 100.712C151.181 100.712 151.653 100.288 151.909 99.44C152.181 98.592 152.317 97.216 152.317 95.312C152.317 93.408 152.181 92.032 151.909 91.184C151.653 90.336 151.181 89.912 150.493 89.912C149.805 89.912 149.325 90.336 149.053 91.184C148.797 92.032 148.669 93.408 148.669 95.312C148.669 97.216 148.797 98.592 149.053 99.44C149.325 100.288 149.805 100.712 150.493 100.712ZM157.499 100.424H158.411C158.555 100.424 158.651 100.4 158.699 100.352C158.763 100.288 158.795 100.184 158.795 100.04V90.584C158.795 90.44 158.763 90.344 158.699 90.296C158.651 90.232 158.555 90.2 158.411 90.2H157.499V89.624H163.283C164.355 89.624 165.203 89.872 165.827 90.368C166.467 90.848 166.787 91.512 166.787 92.36C166.787 93.08 166.507 93.656 165.947 94.088C165.387 94.504 164.691 94.768 163.859 94.88V94.976C164.963 95.056 165.843 95.36 166.499 95.888C167.155 96.416 167.483 97.136 167.483 98.048C167.483 98.896 167.147 99.6 166.475 100.16C165.803 100.72 164.979 101 164.003 101H157.499V100.424ZM162.707 94.712C163.187 94.712 163.523 94.512 163.715 94.112C163.907 93.696 164.003 93.136 164.003 92.432C164.003 91.712 163.891 91.16 163.667 90.776C163.443 90.392 163.123 90.2 162.707 90.2H161.963C161.819 90.2 161.715 90.232 161.651 90.296C161.603 90.344 161.579 90.44 161.579 90.584V94.712H162.707ZM162.875 100.424C163.371 100.424 163.747 100.184 164.003 99.704C164.275 99.208 164.411 98.584 164.411 97.832C164.411 97.096 164.283 96.504 164.027 96.056C163.771 95.608 163.387 95.384 162.875 95.384H161.579V100.04C161.579 100.184 161.603 100.288 161.651 100.352C161.715 100.4 161.819 100.424 161.963 100.424H162.875Z" fill="white"/>
</svg>
