<svg width="157" height="68" viewBox="0 0 157 68" fill="none" xmlns="http://www.w3.org/2000/svg">
<path d="M146.078 55.7981C146.078 83.0533 97.027 55.7981 61.0935 55.7981C25.16 55.7981 0 40.4773 0 13.2221C0 -14.033 41.8839 9.29668 77.8174 9.29668C113.751 9.29668 146.078 28.543 146.078 55.7981Z" fill="url(#paint0_linear_17_2)" fill-opacity="0.53"/>
<path d="M150.85 16.3022C187.588 45.8438 48.9 68 20.776 68C-7.34801 68 28.4666 29.0226 28.4666 13.6698C28.4666 -1.68312 63.7204 19.008 91.8444 19.008C119.968 19.008 132.104 -2.72441 150.85 16.3022Z" fill="url(#paint1_linear_17_2)"/>
<path d="M27.04 42.488H28.32C28.4693 42.488 28.5707 42.4613 28.624 42.408C28.6773 42.344 28.704 42.2427 28.704 42.104V32.664C28.704 32.4933 28.6507 32.36 28.544 32.264C28.4373 32.168 28.2933 32.12 28.112 32.12C27.6107 32.12 27.152 32.3973 26.736 32.952C26.32 33.496 26.0107 34.136 25.808 34.872C25.6907 35.2667 25.6053 35.6027 25.552 35.88C25.5093 36.1467 25.4827 36.312 25.472 36.376H24.96L25.088 31.608H34.688L34.816 36.376H34.304C34.2933 36.312 34.2613 36.1467 34.208 35.88C34.1653 35.6027 34.0853 35.2667 33.968 34.872C33.7653 34.136 33.456 33.496 33.04 32.952C32.624 32.3973 32.1653 32.12 31.664 32.12C31.4827 32.12 31.3387 32.168 31.232 32.264C31.1253 32.36 31.072 32.4933 31.072 32.664V42.104C31.072 42.2427 31.0987 42.344 31.152 42.408C31.216 42.4613 31.3173 42.488 31.456 42.488H32.736V43H27.04V42.488ZM44.9731 43.384C44.2905 43.384 43.7465 43.1813 43.3411 42.776C42.9465 42.3707 42.7491 41.7733 42.7491 40.984V39C42.7491 38.488 42.6211 38.056 42.3651 37.704C42.1198 37.352 41.7358 37.176 41.2131 37.176H40.3171V42.104C40.3171 42.2427 40.3438 42.344 40.3971 42.408C40.4611 42.4613 40.5625 42.488 40.7011 42.488H42.1091V43H36.4451V42.488H37.5651C37.7145 42.488 37.8158 42.4613 37.8691 42.408C37.9225 42.344 37.9491 42.2427 37.9491 42.104V32.504C37.9491 32.3547 37.9225 32.2533 37.8691 32.2C37.8158 32.1467 37.7145 32.12 37.5651 32.12H36.4451V31.608H41.6291C42.7811 31.608 43.7091 31.864 44.4131 32.376C45.1171 32.8773 45.4691 33.56 45.4691 34.424C45.4691 35.16 45.1971 35.7413 44.6531 36.168C44.1198 36.5947 43.4105 36.8613 42.5251 36.968V37.08C43.3571 37.2293 43.9971 37.528 44.4451 37.976C44.8931 38.4133 45.1171 39.1013 45.1171 40.04V41.816C45.1171 42.264 45.2665 42.488 45.5651 42.488C45.8425 42.488 46.0451 42.2587 46.1731 41.8C46.3011 41.3413 46.3651 40.7813 46.3651 40.12H46.8771C46.8771 41.1547 46.7385 41.96 46.4611 42.536C46.1838 43.1013 45.6878 43.384 44.9731 43.384ZM41.3891 36.664C41.9545 36.664 42.3491 36.456 42.5731 36.04C42.7971 35.624 42.9091 35.0427 42.9091 34.296C42.9091 33.5707 42.7971 33.0267 42.5731 32.664C42.3491 32.3013 41.9545 32.12 41.3891 32.12H40.7011C40.5625 32.12 40.4611 32.1467 40.3971 32.2C40.3438 32.2533 40.3171 32.3547 40.3171 32.504V36.664H41.3891ZM53.0165 43.288C52.0565 43.288 51.2618 43.1013 50.6325 42.728C50.0032 42.344 49.5392 41.848 49.2405 41.24C48.9525 40.6213 48.8085 39.944 48.8085 39.208V32.504C48.8085 32.3547 48.7818 32.2533 48.7285 32.2C48.6752 32.1467 48.5738 32.12 48.4245 32.12H47.4005V31.608H52.5845V32.12H51.5605C51.4218 32.12 51.3205 32.1467 51.2565 32.2C51.2032 32.2533 51.1765 32.3547 51.1765 32.504V39.832C51.1765 40.8133 51.3632 41.528 51.7365 41.976C52.1098 42.424 52.6858 42.648 53.4645 42.648C53.9872 42.648 54.4565 42.52 54.8725 42.264C55.2885 42.008 55.6138 41.6667 55.8485 41.24C56.0832 40.8133 56.2005 40.344 56.2005 39.832V33.56C56.2005 33.08 56.0352 32.7227 55.7045 32.488C55.3845 32.2427 54.9952 32.12 54.5365 32.12V31.608H58.5045V32.12C58.0458 32.12 57.6512 32.2427 57.3205 32.488C57.0005 32.7227 56.8405 33.08 56.8405 33.56V39.672C56.8405 40.344 56.6858 40.9573 56.3765 41.512C56.0778 42.056 55.6352 42.488 55.0485 42.808C54.4725 43.128 53.7952 43.288 53.0165 43.288ZM60.0076 42.488H61.1276C61.277 42.488 61.3783 42.4613 61.4316 42.408C61.485 42.344 61.5116 42.2427 61.5116 42.104V32.504C61.5116 32.3547 61.485 32.2533 61.4316 32.2C61.3783 32.1467 61.277 32.12 61.1276 32.12H60.0076V31.608H68.9996L69.0956 35.32H68.5836C68.5836 35.2453 68.525 35.0053 68.4076 34.6C68.301 34.1947 68.1463 33.8267 67.9436 33.496C67.6983 33.0693 67.4156 32.7333 67.0956 32.488C66.7756 32.2427 66.4183 32.12 66.0236 32.12H64.2636C64.125 32.12 64.0236 32.1467 63.9596 32.2C63.9063 32.2533 63.8796 32.3547 63.8796 32.504V36.92H64.6956C64.9836 36.92 65.2503 36.8027 65.4956 36.568C65.741 36.3333 65.933 36.0453 66.0716 35.704C66.221 35.352 66.2956 35.0213 66.2956 34.712H66.8076V39.72H66.2956C66.2956 39.4 66.221 39.0693 66.0716 38.728C65.933 38.376 65.741 38.0827 65.4956 37.848C65.2503 37.6133 64.9836 37.496 64.6956 37.496H63.8796V42.104C63.8796 42.2427 63.9063 42.344 63.9596 42.408C64.0236 42.4613 64.125 42.488 64.2636 42.488H66.0076C66.5943 42.488 67.085 42.2533 67.4796 41.784C67.8743 41.3147 68.173 40.792 68.3756 40.216C68.461 39.9707 68.5356 39.6667 68.5996 39.304C68.6636 38.9413 68.701 38.7013 68.7116 38.584H69.2236L69.1276 43H60.0076V42.488ZM80.1469 43.288C79.2402 43.288 78.4455 43.016 77.7629 42.472C77.0909 41.928 76.5735 41.2027 76.2109 40.296C75.8482 39.3787 75.6669 38.3813 75.6669 37.304C75.6669 36.2373 75.8695 35.2453 76.2749 34.328C76.6802 33.4107 77.2455 32.68 77.9709 32.136C78.6962 31.592 79.5175 31.32 80.4349 31.32C80.8935 31.32 81.2882 31.3893 81.6189 31.528C81.9602 31.656 82.3229 31.848 82.7069 32.104C82.9522 32.264 83.1335 32.344 83.2509 32.344C83.3895 32.344 83.5069 32.2427 83.6029 32.04L83.8749 31.448H84.4029V36.056H83.9069C83.5335 34.7013 83.0535 33.6613 82.4669 32.936C81.8909 32.2 81.2135 31.832 80.4349 31.832C79.7842 31.832 79.2775 32.072 78.9149 32.552C78.5629 33.0213 78.3869 33.8053 78.3869 34.904V39.704C78.3869 41.752 78.9735 42.776 80.1469 42.776C80.7015 42.776 81.1549 42.5413 81.5069 42.072C81.8589 41.6027 82.0349 41.0533 82.0349 40.424V38.232C82.0349 38.0827 82.0082 37.9813 81.9549 37.928C81.9015 37.8747 81.8002 37.848 81.6509 37.848H80.2429V37.336H85.5549V37.848H84.7869C84.6482 37.848 84.5469 37.8747 84.4829 37.928C84.4295 37.9813 84.4029 38.0827 84.4029 38.232V43.208H83.8909L83.5069 41.752C83.4749 41.6453 83.4269 41.5547 83.3629 41.48C83.2989 41.3947 83.2189 41.352 83.1229 41.352C82.9309 41.352 82.7655 41.464 82.6269 41.688C82.3602 42.0933 82.0135 42.4613 81.5869 42.792C81.1602 43.1227 80.6802 43.288 80.1469 43.288ZM85.9384 42.488H86.4824C86.8024 42.488 87.085 42.3653 87.3304 42.12C87.5757 41.864 87.7624 41.5547 87.8904 41.192L91.2664 31.32H91.9384L95.3624 41.672C95.5437 42.216 95.8584 42.488 96.3064 42.488H96.9464V43H91.3304V42.488H92.4824C92.6104 42.488 92.7117 42.44 92.7864 42.344C92.8717 42.2373 92.9144 42.1147 92.9144 41.976C92.9144 41.8587 92.8824 41.704 92.8184 41.512L92.3064 39.976H88.9464L88.6104 40.952C88.493 41.2507 88.4344 41.5227 88.4344 41.768C88.4344 41.96 88.509 42.1307 88.6584 42.28C88.8184 42.4187 89.021 42.488 89.2664 42.488H90.0184V43H85.9384V42.488ZM89.1544 39.384H92.1144L90.6584 34.984L89.1544 39.384ZM100.481 34.408H100.369V41.048C100.369 41.528 100.529 41.8907 100.849 42.136C101.18 42.3707 101.574 42.488 102.033 42.488V43H98.0649V42.488C98.5235 42.488 98.9129 42.3707 99.2329 42.136C99.5635 41.8907 99.7289 41.528 99.7289 41.048V32.504C99.7289 32.3547 99.7022 32.2533 99.6489 32.2C99.5955 32.1467 99.4942 32.12 99.3449 32.12H98.0649V31.608H101.889L104.817 39.48L106.961 31.608H111.025V32.12H109.905C109.766 32.12 109.665 32.1467 109.601 32.2C109.548 32.2533 109.521 32.3547 109.521 32.504V42.104C109.521 42.2427 109.548 42.344 109.601 42.408C109.665 42.4613 109.766 42.488 109.905 42.488H111.025V43H105.649V42.488H106.769C106.918 42.488 107.02 42.4613 107.073 42.408C107.126 42.344 107.153 42.2427 107.153 42.104V33L104.369 43.192H103.745L100.481 34.408ZM112.523 42.488H113.643C113.793 42.488 113.894 42.4613 113.947 42.408C114.001 42.344 114.027 42.2427 114.027 42.104V32.504C114.027 32.3547 114.001 32.2533 113.947 32.2C113.894 32.1467 113.793 32.12 113.643 32.12H112.523V31.608H121.515L121.611 35.32H121.099C121.099 35.2453 121.041 35.0053 120.923 34.6C120.817 34.1947 120.662 33.8267 120.459 33.496C120.214 33.0693 119.931 32.7333 119.611 32.488C119.291 32.2427 118.934 32.12 118.539 32.12H116.779C116.641 32.12 116.539 32.1467 116.475 32.2C116.422 32.2533 116.395 32.3547 116.395 32.504V36.92H117.211C117.499 36.92 117.766 36.8027 118.011 36.568C118.257 36.3333 118.449 36.0453 118.587 35.704C118.737 35.352 118.811 35.0213 118.811 34.712H119.323V39.72H118.811C118.811 39.4 118.737 39.0693 118.587 38.728C118.449 38.376 118.257 38.0827 118.011 37.848C117.766 37.6133 117.499 37.496 117.211 37.496H116.395V42.104C116.395 42.2427 116.422 42.344 116.475 42.408C116.539 42.4613 116.641 42.488 116.779 42.488H118.523C119.11 42.488 119.601 42.2533 119.995 41.784C120.39 41.3147 120.689 40.792 120.891 40.216C120.977 39.9707 121.051 39.6667 121.115 39.304C121.179 38.9413 121.217 38.7013 121.227 38.584H121.739L121.643 43H112.523V42.488ZM128.13 43.288C127.661 43.288 127.239 43.2187 126.866 43.08C126.493 42.952 126.183 42.7867 125.938 42.584C125.693 42.4027 125.517 42.28 125.41 42.216C125.303 42.1413 125.202 42.104 125.106 42.104C124.882 42.104 124.743 42.2853 124.69 42.648L124.61 43.16H124.114L124.018 38.104H124.53C124.679 38.9147 124.93 39.6773 125.282 40.392C125.645 41.1067 126.077 41.6827 126.578 42.12C127.09 42.5573 127.639 42.776 128.226 42.776C129.069 42.776 129.645 42.5893 129.954 42.216C130.263 41.8427 130.418 41.4213 130.418 40.952C130.418 40.6747 130.317 40.4293 130.114 40.216C129.922 39.992 129.639 39.7573 129.266 39.512L125.842 37.304C125.341 36.984 124.914 36.584 124.562 36.104C124.221 35.624 124.05 35.0533 124.05 34.392C124.05 33.3573 124.349 32.5893 124.946 32.088C125.554 31.576 126.301 31.32 127.186 31.32C127.943 31.32 128.701 31.5867 129.458 32.12C129.703 32.312 129.895 32.408 130.034 32.408C130.226 32.408 130.343 32.2853 130.386 32.04L130.482 31.608H130.994L131.154 35.768H130.642C130.439 35.032 130.157 34.3653 129.794 33.768C129.431 33.1707 129.01 32.7013 128.53 32.36C128.061 32.008 127.57 31.832 127.058 31.832C126.493 31.832 126.071 31.944 125.794 32.168C125.527 32.392 125.394 32.728 125.394 33.176C125.394 33.784 125.869 34.3973 126.818 35.016L130.258 37.24C130.695 37.528 131.042 37.9227 131.298 38.424C131.565 38.9253 131.698 39.448 131.698 39.992C131.698 40.5467 131.565 41.0747 131.298 41.576C131.031 42.0773 130.631 42.488 130.098 42.808C129.565 43.128 128.909 43.288 128.13 43.288Z" fill="white"/>
<defs>
<linearGradient id="paint0_linear_17_2" x1="-1.5615" y1="11.6519" x2="129.947" y2="82.4102" gradientUnits="userSpaceOnUse">
<stop stop-color="#001AFF"/>
<stop offset="0.460619" stop-color="#293CE5"/>
<stop offset="1" stop-color="#FF0079"/>
</linearGradient>
<linearGradient id="paint1_linear_17_2" x1="49.0355" y1="18.6974" x2="49.0355" y2="90.2587" gradientUnits="userSpaceOnUse">
<stop stop-color="#FF0079"/>
<stop offset="1" stop-color="#8527FC" stop-opacity="0"/>
</linearGradient>
</defs>
</svg>
