<svg width="221" height="113" viewBox="0 0 221 113" fill="none" xmlns="http://www.w3.org/2000/svg">
<path fill-rule="evenodd" clip-rule="evenodd" d="M18.8 72.0752C19.0359 72.0748 19.2657 72.1486 19.4555 72.2857C19.6452 72.4227 19.7849 72.6158 19.8538 72.8363L24.0954 86.4522L36.7784 90.9823C36.9875 91.0572 37.1685 91.1923 37.2973 91.3699C37.4261 91.5475 37.4968 91.7591 37.4999 91.9767C37.503 92.1944 37.4384 92.4078 37.3147 92.5888C37.1909 92.7698 37.0139 92.9099 36.807 92.9904L24.2076 97.8816L19.8538 112.158C19.7859 112.379 19.6467 112.574 19.4569 112.712C19.267 112.85 19.0367 112.924 18.8 112.924C18.5633 112.924 18.3329 112.85 18.1431 112.712C17.9532 112.574 17.814 112.379 17.7462 112.158L13.3924 97.8816L0.792974 92.9904C0.586046 92.9099 0.409012 92.7698 0.285289 92.5888C0.161565 92.4078 0.0969823 92.1944 0.100082 91.9767C0.103182 91.7591 0.173819 91.5475 0.302649 91.3699C0.431479 91.1923 0.612433 91.0572 0.821574 90.9823L13.5046 86.4522L17.7484 72.8363C17.8172 72.6161 17.9565 72.4233 18.1458 72.2863C18.3351 72.1493 18.5644 72.0753 18.8 72.0752ZM18.8 76.8396L15.4494 87.5896C15.3997 87.7489 15.3128 87.8947 15.1956 88.0156C15.0784 88.1365 14.9341 88.2291 14.774 88.2862L4.28657 92.0358L14.7014 96.0778C14.8557 96.138 14.994 96.2315 15.1061 96.3514C15.2181 96.4713 15.3009 96.6145 15.3482 96.7701L18.8022 108.088L22.2518 96.7701C22.2991 96.6145 22.3819 96.4713 22.4939 96.3514C22.6059 96.2315 22.7443 96.138 22.8986 96.0778L33.3134 92.0358L22.826 88.2905C22.6659 88.2334 22.5215 88.1408 22.4043 88.0199C22.2871 87.899 22.2002 87.7532 22.1506 87.5939L18.8 76.8396Z" fill="black"/>
<path d="M35.85 112.108C35.63 112.108 35.432 111.936 35.41 111.721C35.014 107.808 34.706 106.561 31.032 106.217C30.812 106.196 30.636 106.002 30.636 105.787C30.636 105.572 30.812 105.379 31.032 105.357C34.794 105.013 35.014 104.067 35.41 100.154C35.41 99.9391 35.63 99.7671 35.85 99.7671C36.07 99.7671 36.268 99.9391 36.29 100.154C36.686 104.067 36.928 105.013 40.668 105.357C40.888 105.379 41.064 105.572 41.064 105.787C41.064 106.002 40.888 106.196 40.668 106.217C36.972 106.561 36.686 107.808 36.29 111.743C36.29 111.958 36.092 112.13 35.85 112.13V112.108Z" fill="black"/>
<path d="M27.68 53.952H32.288C32.8853 53.952 33.2907 53.8453 33.504 53.632C33.7173 53.376 33.824 52.9707 33.824 52.416V17.408H27.68V15.104H30.048C31.9253 15.104 33.6533 14.6987 35.232 13.888C36.8533 13.0773 37.9413 11.9253 38.496 10.432H43.296V52.416C43.296 52.9707 43.4027 53.376 43.616 53.632C43.872 53.8453 44.2773 53.952 44.832 53.952H49.44V56H27.68V53.952ZM75.685 57.024C72.613 57.024 69.9037 55.8293 67.557 53.44C65.253 51.0507 63.461 48.0213 62.181 44.352C60.9437 40.64 60.325 36.928 60.325 33.216C60.325 29.504 60.9437 25.8133 62.181 22.144C63.461 18.432 65.253 15.3813 67.557 12.992C69.9037 10.6027 72.613 9.408 75.685 9.408C78.757 9.408 81.445 10.6027 83.749 12.992C86.0957 15.3813 87.8877 18.432 89.125 22.144C90.405 25.8133 91.045 29.504 91.045 33.216C91.045 36.928 90.405 40.64 89.125 44.352C87.8877 48.0213 86.0957 51.0507 83.749 53.44C81.445 55.8293 78.757 57.024 75.685 57.024ZM75.685 54.976C77.2637 54.976 78.3943 54.1227 79.077 52.416C79.8023 50.6667 80.165 48.7893 80.165 46.784V19.648C80.165 17.6427 79.8023 15.7867 79.077 14.08C78.3943 12.3307 77.2637 11.456 75.685 11.456C74.1063 11.456 72.9543 12.3307 72.229 14.08C71.5463 15.7867 71.205 17.6427 71.205 19.648V46.784C71.205 48.7893 71.5463 50.6667 72.229 52.416C72.9543 54.1227 74.1063 54.976 75.685 54.976ZM112.81 57.024C109.738 57.024 107.029 55.8293 104.682 53.44C102.378 51.0507 100.586 48.0213 99.306 44.352C98.0687 40.64 97.45 36.928 97.45 33.216C97.45 29.504 98.0687 25.8133 99.306 22.144C100.586 18.432 102.378 15.3813 104.682 12.992C107.029 10.6027 109.738 9.408 112.81 9.408C115.882 9.408 118.57 10.6027 120.874 12.992C123.221 15.3813 125.013 18.432 126.25 22.144C127.53 25.8133 128.17 29.504 128.17 33.216C128.17 36.928 127.53 40.64 126.25 44.352C125.013 48.0213 123.221 51.0507 120.874 53.44C118.57 55.8293 115.882 57.024 112.81 57.024ZM112.81 54.976C114.389 54.976 115.519 54.1227 116.202 52.416C116.927 50.6667 117.29 48.7893 117.29 46.784V19.648C117.29 17.6427 116.927 15.7867 116.202 14.08C115.519 12.3307 114.389 11.456 112.81 11.456C111.231 11.456 110.079 12.3307 109.354 14.08C108.671 15.7867 108.33 17.6427 108.33 19.648V46.784C108.33 48.7893 108.671 50.6667 109.354 52.416C110.079 54.1227 111.231 54.976 112.81 54.976ZM143.535 53.952H148.655C149.252 53.952 149.658 53.8453 149.871 53.632C150.084 53.376 150.191 52.9707 150.191 52.416V14.656C150.191 13.9733 149.978 13.44 149.551 13.056C149.124 12.672 148.548 12.48 147.823 12.48C145.818 12.48 143.983 13.5893 142.319 15.808C140.655 17.984 139.418 20.544 138.607 23.488C138.138 25.0667 137.796 26.4107 137.583 27.52C137.412 28.5867 137.306 29.248 137.263 29.504H135.215L135.727 10.432H174.127L174.639 29.504H172.591C172.548 29.248 172.42 28.5867 172.207 27.52C172.036 26.4107 171.716 25.0667 171.247 23.488C170.436 20.544 169.199 17.984 167.535 15.808C165.871 13.5893 164.036 12.48 162.031 12.48C161.306 12.48 160.73 12.672 160.303 13.056C159.876 13.44 159.663 13.9733 159.663 14.656V52.416C159.663 52.9707 159.77 53.376 159.983 53.632C160.239 53.8453 160.644 53.952 161.199 53.952H166.319V56H143.535V53.952Z" fill="black"/>
<path d="M65.048 99.288C64.184 99.288 63.376 99.032 62.624 98.52C61.872 97.992 61.272 97.272 60.824 96.36C60.376 95.448 60.152 94.432 60.152 93.312C60.152 92.192 60.376 91.176 60.824 90.264C61.272 89.352 61.872 88.64 62.624 88.128C63.376 87.6 64.184 87.336 65.048 87.336C65.912 87.336 66.72 87.6 67.472 88.128C68.224 88.64 68.824 89.352 69.272 90.264C69.72 91.176 69.944 92.192 69.944 93.312C69.944 94.432 69.72 95.448 69.272 96.36C68.824 97.272 68.224 97.992 67.472 98.52C66.72 99.032 65.912 99.288 65.048 99.288ZM65.048 98.712C65.736 98.712 66.208 98.288 66.464 97.44C66.736 96.592 66.872 95.216 66.872 93.312C66.872 91.408 66.736 90.032 66.464 89.184C66.208 88.336 65.736 87.912 65.048 87.912C64.36 87.912 63.88 88.336 63.608 89.184C63.352 90.032 63.224 91.408 63.224 93.312C63.224 95.216 63.352 96.592 63.608 97.44C63.88 98.288 64.36 98.712 65.048 98.712ZM73.7818 98.424H75.1258C75.2698 98.424 75.3658 98.4 75.4138 98.352C75.4778 98.288 75.5098 98.184 75.5098 98.04V88.584C75.5098 88.424 75.4778 88.32 75.4138 88.272C75.3658 88.224 75.2698 88.2 75.1258 88.2C74.7738 88.2 74.4298 88.4 74.0938 88.8C73.7738 89.184 73.5098 89.632 73.3018 90.144C73.0778 90.688 72.9098 91.168 72.7978 91.584C72.7018 92 72.6458 92.264 72.6298 92.376H71.9578L72.1018 87.624H81.7018L81.8458 92.376H81.1738C81.1578 92.264 81.0938 92 80.9818 91.584C80.8858 91.168 80.7258 90.688 80.5018 90.144C80.2938 89.632 80.0218 89.184 79.6858 88.8C79.3658 88.4 79.0298 88.2 78.6778 88.2C78.5338 88.2 78.4298 88.224 78.3658 88.272C78.3178 88.32 78.2938 88.424 78.2938 88.584V98.04C78.2938 98.184 78.3178 98.288 78.3658 98.352C78.4298 98.4 78.5338 98.424 78.6778 98.424H80.0218V99H73.7818V98.424ZM87.4228 99.288C86.4788 99.288 85.6548 99.048 84.9508 98.568C84.2628 98.072 83.9188 97.368 83.9188 96.456C83.9188 95.976 84.0708 95.568 84.3748 95.232C84.6948 94.896 85.0708 94.728 85.5028 94.728C85.8708 94.728 86.1748 94.84 86.4148 95.064C86.6708 95.288 86.7988 95.552 86.7988 95.856C86.7988 96.096 86.7508 96.304 86.6548 96.48C86.5588 96.64 86.3908 96.792 86.1508 96.936C85.8148 97.16 85.6468 97.384 85.6468 97.608C85.6468 97.992 85.8148 98.272 86.1508 98.448C86.5028 98.624 86.9588 98.712 87.5188 98.712C88.0628 98.712 88.4788 98.464 88.7668 97.968C89.0548 97.456 89.1988 96.736 89.1988 95.808C89.1988 95.104 89.0788 94.528 88.8388 94.08C88.6148 93.616 88.2308 93.384 87.6868 93.384H85.5028V92.712H87.6628C88.2068 92.712 88.5588 92.488 88.7188 92.04C88.8788 91.592 88.9588 91 88.9588 90.264C88.9588 88.696 88.5028 87.912 87.5908 87.912C86.9188 87.912 86.3268 88.32 85.8148 89.136C85.3188 89.936 84.9748 90.864 84.7828 91.92H84.2068V87.48H84.7828L84.9748 88.056C85.0388 88.232 85.1348 88.32 85.2628 88.32C85.3588 88.32 85.5108 88.24 85.7188 88.08C86.4068 87.584 87.1668 87.336 87.9988 87.336C89.1668 87.336 90.0788 87.608 90.7348 88.152C91.4068 88.696 91.7428 89.384 91.7428 90.216C91.7428 90.824 91.5028 91.376 91.0228 91.872C90.5428 92.352 89.9348 92.68 89.1988 92.856V93C91.2468 93.416 92.2708 94.44 92.2708 96.072C92.2708 97.048 91.8388 97.832 90.9748 98.424C90.1268 99 88.9428 99.288 87.4228 99.288ZM94.085 98.424H94.997C95.141 98.424 95.237 98.4 95.285 98.352C95.349 98.288 95.381 98.184 95.381 98.04V88.584C95.381 88.44 95.349 88.344 95.285 88.296C95.237 88.232 95.141 88.2 94.997 88.2H94.085V87.624H99.413V88.2H98.597C98.437 88.2 98.325 88.24 98.261 88.32C98.197 88.4 98.165 88.544 98.165 88.752V92.808H100.229C101.221 92.808 102.045 93.104 102.701 93.696C103.357 94.288 103.685 95.016 103.685 95.88C103.685 96.456 103.533 96.984 103.229 97.464C102.941 97.928 102.533 98.304 102.005 98.592C101.477 98.864 100.885 99 100.229 99H94.085V98.424ZM103.349 98.424H104.117C104.261 98.424 104.357 98.4 104.405 98.352C104.469 98.288 104.501 98.184 104.501 98.04V88.584C104.501 88.44 104.469 88.344 104.405 88.296C104.357 88.232 104.261 88.2 104.117 88.2H103.349V87.624H108.581V88.2H107.669C107.525 88.2 107.421 88.232 107.357 88.296C107.309 88.344 107.285 88.44 107.285 88.584V98.04C107.285 98.184 107.309 98.288 107.357 98.352C107.421 98.4 107.525 98.424 107.669 98.424H108.581V99H103.349V98.424ZM99.221 98.424C99.717 98.424 100.093 98.184 100.349 97.704C100.621 97.224 100.757 96.616 100.757 95.88C100.757 95.144 100.629 94.544 100.373 94.08C100.117 93.616 99.733 93.384 99.221 93.384H98.165V98.04C98.165 98.184 98.189 98.288 98.237 98.352C98.301 98.4 98.405 98.424 98.549 98.424H99.221ZM110.491 98.424H111.403C111.547 98.424 111.643 98.4 111.691 98.352C111.755 98.288 111.787 98.184 111.787 98.04V88.584C111.787 88.44 111.755 88.344 111.691 88.296C111.643 88.232 111.547 88.2 111.403 88.2H110.491V87.624H116.275C117.347 87.624 118.195 87.872 118.819 88.368C119.459 88.848 119.779 89.512 119.779 90.36C119.779 91.08 119.499 91.656 118.939 92.088C118.379 92.504 117.683 92.768 116.851 92.88V92.976C117.955 93.056 118.835 93.36 119.491 93.888C120.147 94.416 120.475 95.136 120.475 96.048C120.475 96.896 120.139 97.6 119.467 98.16C118.795 98.72 117.971 99 116.995 99H110.491V98.424ZM115.699 92.712C116.179 92.712 116.515 92.512 116.707 92.112C116.899 91.696 116.995 91.136 116.995 90.432C116.995 89.712 116.883 89.16 116.659 88.776C116.435 88.392 116.115 88.2 115.699 88.2H114.955C114.811 88.2 114.707 88.232 114.643 88.296C114.595 88.344 114.571 88.44 114.571 88.584V92.712H115.699ZM115.867 98.424C116.363 98.424 116.739 98.184 116.995 97.704C117.267 97.208 117.403 96.584 117.403 95.832C117.403 95.096 117.275 94.504 117.019 94.056C116.763 93.608 116.379 93.384 115.867 93.384H114.571V98.04C114.571 98.184 114.595 98.288 114.643 98.352C114.707 98.4 114.811 98.424 114.955 98.424H115.867ZM127.579 99.288C126.715 99.288 125.907 99.032 125.155 98.52C124.403 97.992 123.803 97.272 123.355 96.36C122.907 95.448 122.683 94.432 122.683 93.312C122.683 92.192 122.907 91.176 123.355 90.264C123.803 89.352 124.403 88.64 125.155 88.128C125.907 87.6 126.715 87.336 127.579 87.336C128.443 87.336 129.251 87.6 130.003 88.128C130.755 88.64 131.355 89.352 131.803 90.264C132.251 91.176 132.475 92.192 132.475 93.312C132.475 94.432 132.251 95.448 131.803 96.36C131.355 97.272 130.755 97.992 130.003 98.52C129.251 99.032 128.443 99.288 127.579 99.288ZM127.579 98.712C128.267 98.712 128.739 98.288 128.995 97.44C129.267 96.592 129.403 95.216 129.403 93.312C129.403 91.408 129.267 90.032 128.995 89.184C128.739 88.336 128.267 87.912 127.579 87.912C126.891 87.912 126.411 88.336 126.139 89.184C125.883 90.032 125.755 91.408 125.755 93.312C125.755 95.216 125.883 96.592 126.139 97.44C126.411 98.288 126.891 98.712 127.579 98.712ZM134.585 98.424H135.497C135.641 98.424 135.737 98.4 135.785 98.352C135.849 98.288 135.881 98.184 135.881 98.04V88.584C135.881 88.44 135.849 88.344 135.785 88.296C135.737 88.232 135.641 88.2 135.497 88.2H134.585V87.624H140.369C141.441 87.624 142.289 87.872 142.913 88.368C143.553 88.848 143.873 89.512 143.873 90.36C143.873 91.08 143.593 91.656 143.033 92.088C142.473 92.504 141.777 92.768 140.945 92.88V92.976C142.049 93.056 142.929 93.36 143.585 93.888C144.241 94.416 144.569 95.136 144.569 96.048C144.569 96.896 144.233 97.6 143.561 98.16C142.889 98.72 142.065 99 141.089 99H134.585V98.424ZM139.793 92.712C140.273 92.712 140.609 92.512 140.801 92.112C140.993 91.696 141.089 91.136 141.089 90.432C141.089 89.712 140.977 89.16 140.753 88.776C140.529 88.392 140.209 88.2 139.793 88.2H139.049C138.905 88.2 138.801 88.232 138.737 88.296C138.689 88.344 138.665 88.44 138.665 88.584V92.712H139.793ZM139.961 98.424C140.457 98.424 140.833 98.184 141.089 97.704C141.361 97.208 141.497 96.584 141.497 95.832C141.497 95.096 141.369 94.504 141.113 94.056C140.857 93.608 140.473 93.384 139.961 93.384H138.665V98.04C138.665 98.184 138.689 98.288 138.737 98.352C138.801 98.4 138.905 98.424 139.049 98.424H139.961Z" fill="black"/>
</svg>
