<svg width="315" height="114" viewBox="0 0 315 114" fill="none" xmlns="http://www.w3.org/2000/svg">
<path fill-rule="evenodd" clip-rule="evenodd" d="M19.7704 76C20.0109 75.9997 20.2452 76.0679 20.4387 76.1947C20.6321 76.3215 20.7745 76.5001 20.8447 76.7041L25.1689 89.2996L38.099 93.4902C38.3122 93.5594 38.4967 93.6845 38.628 93.8487C38.7594 94.013 38.8314 94.2087 38.8345 94.4101C38.8377 94.6114 38.7719 94.8089 38.6457 94.9763C38.5196 95.1437 38.3391 95.2733 38.1281 95.3478L25.2833 99.8725L20.8447 113.079C20.7755 113.284 20.6336 113.463 20.4401 113.591C20.2465 113.719 20.0117 113.788 19.7704 113.788C19.5291 113.788 19.2942 113.719 19.1007 113.591C18.9072 113.463 18.7652 113.284 18.6961 113.079L14.2574 99.8725L1.41261 95.3478C1.20165 95.2733 1.02117 95.1437 0.895039 94.9763C0.768905 94.8089 0.703064 94.6114 0.706224 94.4101C0.709385 94.2087 0.781397 94.013 0.912737 93.8487C1.04408 93.6845 1.22856 93.5594 1.44177 93.4902L14.3718 89.2996L18.6983 76.7041C18.7684 76.5004 18.9104 76.322 19.1034 76.1953C19.2964 76.0685 19.5302 76.0001 19.7704 76ZM19.7704 80.4074L16.3545 90.3517C16.3039 90.4991 16.2153 90.634 16.0958 90.7458C15.9763 90.8577 15.8292 90.9433 15.666 90.9961L4.97427 94.4647L15.5919 98.2038C15.7493 98.2595 15.8903 98.346 16.0045 98.4569C16.1187 98.5678 16.2031 98.7003 16.2513 98.8442L19.7726 109.314L23.2894 98.8442C23.3377 98.7003 23.422 98.5678 23.5362 98.4569C23.6505 98.346 23.7915 98.2595 23.9488 98.2038L34.5665 94.4647L23.8748 91.0001C23.7116 90.9473 23.5644 90.8616 23.4449 90.7498C23.3254 90.638 23.2369 90.5031 23.1862 90.3557L19.7704 80.4074Z" fill="white"/>
<path d="M37.1525 113.033C36.9282 113.033 36.7263 112.874 36.7039 112.675C36.3002 109.055 35.9862 107.902 32.2406 107.583C32.0163 107.563 31.8369 107.384 31.8369 107.186C31.8369 106.987 32.0163 106.808 32.2406 106.788C36.0759 106.47 36.3002 105.594 36.7039 101.975C36.7039 101.776 36.9282 101.617 37.1525 101.617C37.3768 101.617 37.5786 101.776 37.6011 101.975C38.0048 105.594 38.2515 106.47 42.0643 106.788C42.2886 106.808 42.468 106.987 42.468 107.186C42.468 107.384 42.2886 107.563 42.0643 107.583C38.2963 107.902 38.0048 109.055 37.6011 112.695C37.6011 112.894 37.3992 113.053 37.1525 113.053V113.033Z" fill="white"/>
<path d="M77.2916 102.24C76.7849 102.24 76.3716 102.073 76.0516 101.74C75.7449 101.407 75.5916 101.013 75.5916 100.56C75.5916 100.147 75.7249 99.8 75.9916 99.52C76.2716 99.2267 76.5982 99.08 76.9716 99.08C77.3316 99.08 77.5982 99.1867 77.7716 99.4C77.9449 99.6 78.0316 99.8133 78.0316 100.04C78.0316 100.28 77.9316 100.513 77.7316 100.74C77.6782 100.807 77.6316 100.873 77.5916 100.94C77.5649 100.993 77.5516 101.06 77.5516 101.14C77.5516 101.247 77.5782 101.327 77.6316 101.38C77.6982 101.42 77.7716 101.44 77.8516 101.44C78.1182 101.44 78.3649 101.193 78.5916 100.7C78.8316 100.193 78.9849 99.3667 79.0516 98.22L79.2116 95.72C79.2649 94.8533 79.2916 94.2067 79.2916 93.78C79.2916 93.5533 79.2516 93.3667 79.1716 93.22C79.1049 93.0733 78.9582 93 78.7316 93H77.9916V92.52H84.9916V93H84.2316C84.1116 93 84.0249 93.0267 83.9716 93.08C83.9316 93.12 83.9116 93.2 83.9116 93.32V101.2C83.9116 101.32 83.9316 101.407 83.9716 101.46C84.0249 101.5 84.1116 101.52 84.2316 101.52H84.9916V102H80.5116V101.52H81.2716C81.3916 101.52 81.4716 101.5 81.5116 101.46C81.5649 101.407 81.5916 101.32 81.5916 101.2V93.32C81.5916 93.2 81.5649 93.12 81.5116 93.08C81.4716 93.0267 81.3916 93 81.2716 93H80.7716C80.4516 93 80.2182 93.12 80.0716 93.36C79.9249 93.5867 79.8382 93.9467 79.8116 94.44L79.5516 98.38C79.4182 100.953 78.6649 102.24 77.2916 102.24ZM88.8208 106.76C88.2741 106.76 87.8341 106.587 87.5008 106.24C87.1674 105.907 87.0008 105.473 87.0008 104.94C87.0008 104.5 87.1408 104.113 87.4208 103.78C87.7008 103.447 88.0541 103.28 88.4808 103.28C88.8008 103.28 89.0608 103.373 89.2608 103.56C89.4741 103.76 89.5808 104 89.5808 104.28C89.5808 104.453 89.5408 104.613 89.4608 104.76C89.3941 104.907 89.3074 105.027 89.2008 105.12C89.0141 105.28 88.9208 105.453 88.9208 105.64C88.9208 105.76 88.9541 105.867 89.0208 105.96C89.1008 106.067 89.2208 106.12 89.3808 106.12C89.6074 106.12 89.7941 105.98 89.9408 105.7C90.1008 105.42 90.2474 105.067 90.3808 104.64L91.0408 102.44L87.5808 94.16C87.3941 93.72 87.2208 93.42 87.0608 93.26C86.9141 93.0867 86.6741 93 86.3408 93H86.0408V92.52H90.9408V93H90.3608C90.2408 93 90.1274 93.0467 90.0208 93.14C89.9274 93.2333 89.8808 93.36 89.8808 93.52C89.8808 93.6667 89.9274 93.8533 90.0208 94.08L92.0808 99.02L93.3808 94.64C93.4741 94.2667 93.5208 93.9733 93.5208 93.76C93.5208 93.56 93.4674 93.3867 93.3608 93.24C93.2541 93.08 93.1008 93 92.9008 93H92.3808V92.52H95.6808V93H95.2408C95.0008 93 94.7674 93.1067 94.5408 93.32C94.3274 93.52 94.1608 93.8267 94.0408 94.24L91.0008 104.34C90.5341 105.953 89.8074 106.76 88.8208 106.76ZM101.449 101.52H102.209C102.329 101.52 102.409 101.5 102.449 101.46C102.502 101.407 102.529 101.32 102.529 101.2V97.9C101.609 98.18 100.782 98.32 100.049 98.32C99.3824 98.32 98.8357 98.1467 98.4091 97.8C97.9824 97.44 97.7691 96.92 97.7691 96.24V93.32C97.7691 93.2 97.7424 93.12 97.6891 93.08C97.6491 93.0267 97.5691 93 97.4491 93H96.6891V92.52H101.049V93H100.409C100.289 93 100.202 93.0267 100.149 93.08C100.109 93.12 100.089 93.2 100.089 93.32V96.82C100.089 97.1533 100.149 97.3933 100.269 97.54C100.389 97.6867 100.582 97.76 100.849 97.76C101.076 97.76 101.356 97.7267 101.689 97.66C102.022 97.58 102.302 97.5 102.529 97.42V93.32C102.529 93.2 102.502 93.12 102.449 93.08C102.409 93.0267 102.329 93 102.209 93H101.569V92.52H105.929V93H105.169C105.049 93 104.962 93.0267 104.909 93.08C104.869 93.12 104.849 93.2 104.849 93.32V101.2C104.849 101.32 104.869 101.407 104.909 101.46C104.962 101.5 105.049 101.52 105.169 101.52H105.929V102H101.449V101.52ZM107.538 101.52H108.298C108.418 101.52 108.498 101.5 108.538 101.46C108.592 101.407 108.618 101.32 108.618 101.2V93.32C108.618 93.2 108.592 93.12 108.538 93.08C108.498 93.0267 108.418 93 108.298 93H107.538V92.52H111.898V93H111.258C111.138 93 111.052 93.0267 110.998 93.08C110.958 93.12 110.938 93.2 110.938 93.32V101.2C110.938 101.32 110.958 101.407 110.998 101.46C111.052 101.5 111.138 101.52 111.258 101.52H113.258C113.378 101.52 113.458 101.5 113.498 101.46C113.552 101.407 113.578 101.32 113.578 101.2V93.32C113.578 93.2 113.552 93.12 113.498 93.08C113.458 93.0267 113.378 93 113.258 93H112.618V92.52H116.858V93H116.218C116.098 93 116.012 93.0267 115.958 93.08C115.918 93.12 115.898 93.2 115.898 93.32V101.2C115.898 101.32 115.918 101.407 115.958 101.46C116.012 101.5 116.098 101.52 116.218 101.52H118.218C118.338 101.52 118.418 101.5 118.458 101.46C118.512 101.407 118.538 101.32 118.538 101.2V93.32C118.538 93.2 118.512 93.12 118.458 93.08C118.418 93.0267 118.338 93 118.218 93H117.578V92.52H121.938V93H121.178C121.058 93 120.972 93.0267 120.918 93.08C120.878 93.12 120.858 93.2 120.858 93.32V101.2C120.858 101.32 120.878 101.407 120.918 101.46C120.972 101.5 121.058 101.52 121.178 101.52H121.938V102H107.538V101.52ZM123.534 101.52H124.294C124.414 101.52 124.494 101.5 124.534 101.46C124.588 101.407 124.614 101.32 124.614 101.2V93.32C124.614 93.2 124.588 93.12 124.534 93.08C124.494 93.0267 124.414 93 124.294 93H123.534V92.52H127.894V93H127.254C127.134 93 127.048 93.0267 126.994 93.08C126.954 93.12 126.934 93.2 126.934 93.32V99.64L129.974 93.68V93.32C129.974 93.2 129.948 93.12 129.894 93.08C129.854 93.0267 129.774 93 129.654 93H129.014V92.52H133.374V93H132.614C132.494 93 132.408 93.0267 132.354 93.08C132.314 93.12 132.294 93.2 132.294 93.32V101.2C132.294 101.32 132.314 101.407 132.354 101.46C132.408 101.5 132.494 101.52 132.614 101.52H133.374V102H129.014V101.52H129.654C129.774 101.52 129.854 101.5 129.894 101.46C129.948 101.407 129.974 101.32 129.974 101.2V94.88L126.934 100.84V101.2C126.934 101.32 126.954 101.407 126.994 101.46C127.048 101.5 127.134 101.52 127.254 101.52H127.894V102H123.534V101.52ZM139.4 102.24C138.573 102.24 137.833 102.02 137.18 101.58C136.54 101.127 136.04 100.52 135.68 99.76C135.32 99 135.14 98.1667 135.14 97.26C135.14 96.3267 135.32 95.48 135.68 94.72C136.04 93.96 136.526 93.3667 137.14 92.94C137.766 92.5 138.446 92.28 139.18 92.28C139.993 92.28 140.693 92.5733 141.28 93.16C141.866 93.7333 142.253 94.4933 142.44 95.44C142.533 95.8667 142.58 96.5333 142.58 97.44H137.7C137.7 98.08 137.713 98.5867 137.74 98.96C137.766 99.32 137.826 99.6733 137.92 100.02C138.04 100.513 138.266 100.907 138.6 101.2C138.946 101.493 139.346 101.64 139.8 101.64C140.453 101.64 140.98 101.353 141.38 100.78C141.78 100.207 142.02 99.5333 142.1 98.76H142.62C142.54 99.68 142.24 100.493 141.72 101.2C141.2 101.893 140.426 102.24 139.4 102.24ZM140.26 96.88C140.26 95.48 140.166 94.4467 139.98 93.78C139.806 93.1 139.473 92.76 138.98 92.76C138.486 92.76 138.146 93.1 137.96 93.78C137.786 94.4467 137.7 95.48 137.7 96.88H140.26ZM150.019 101.52H150.779C150.899 101.52 150.979 101.5 151.019 101.46C151.072 101.407 151.099 101.32 151.099 101.2V93.32C151.099 93.2 151.072 93.12 151.019 93.08C150.979 93.0267 150.899 93 150.779 93H150.019V92.52H159.739V93H158.979C158.859 93 158.772 93.0267 158.719 93.08C158.679 93.12 158.659 93.2 158.659 93.32V101.2C158.659 101.32 158.679 101.407 158.719 101.46C158.772 101.5 158.859 101.52 158.979 101.52H159.739V102H155.379V101.52H156.019C156.139 101.52 156.219 101.5 156.259 101.46C156.312 101.407 156.339 101.32 156.339 101.2V93.32C156.339 93.2 156.312 93.12 156.259 93.08C156.219 93.0267 156.139 93 156.019 93H153.739C153.619 93 153.532 93.0267 153.479 93.08C153.439 93.12 153.419 93.2 153.419 93.32V101.2C153.419 101.32 153.439 101.407 153.479 101.46C153.532 101.5 153.619 101.52 153.739 101.52H154.379V102H150.019V101.52ZM165.587 102.24C164.867 102.24 164.194 102.027 163.567 101.6C162.94 101.16 162.44 100.56 162.067 99.8C161.694 99.04 161.507 98.1933 161.507 97.26C161.507 96.3267 161.694 95.48 162.067 94.72C162.44 93.96 162.94 93.3667 163.567 92.94C164.194 92.5 164.867 92.28 165.587 92.28C166.307 92.28 166.98 92.5 167.607 92.94C168.234 93.3667 168.734 93.96 169.107 94.72C169.48 95.48 169.667 96.3267 169.667 97.26C169.667 98.1933 169.48 99.04 169.107 99.8C168.734 100.56 168.234 101.16 167.607 101.6C166.98 102.027 166.307 102.24 165.587 102.24ZM165.587 101.76C166.16 101.76 166.554 101.407 166.767 100.7C166.994 99.9933 167.107 98.8467 167.107 97.26C167.107 95.6733 166.994 94.5267 166.767 93.82C166.554 93.1133 166.16 92.76 165.587 92.76C165.014 92.76 164.614 93.1133 164.387 93.82C164.174 94.5267 164.067 95.6733 164.067 97.26C164.067 98.8467 164.174 99.9933 164.387 100.7C164.614 101.407 165.014 101.76 165.587 101.76ZM175.845 102.24C175.018 102.24 174.278 102.02 173.625 101.58C172.985 101.127 172.485 100.52 172.125 99.76C171.765 99 171.585 98.1667 171.585 97.26C171.585 96.3533 171.758 95.52 172.105 94.76C172.465 94 172.965 93.4 173.605 92.96C174.258 92.5067 174.992 92.28 175.805 92.28C176.445 92.28 176.978 92.4133 177.405 92.68C177.845 92.9467 178.172 93.2867 178.385 93.7C178.598 94.1133 178.705 94.54 178.705 94.98C178.705 95.46 178.558 95.88 178.265 96.24C177.972 96.5867 177.618 96.76 177.205 96.76C176.898 96.76 176.645 96.6733 176.445 96.5C176.245 96.3133 176.145 96.0667 176.145 95.76C176.145 95.4 176.358 95.0467 176.785 94.7C177.105 94.4333 177.265 94.16 177.265 93.88C177.265 93.6 177.158 93.3467 176.945 93.12C176.745 92.88 176.418 92.76 175.965 92.76C175.338 92.76 174.878 93.16 174.585 93.96C174.292 94.7467 174.145 95.8467 174.145 97.26C174.145 97.9667 174.158 98.52 174.185 98.92C174.212 99.3067 174.272 99.6733 174.365 100.02C174.485 100.513 174.712 100.907 175.045 101.2C175.392 101.493 175.792 101.64 176.245 101.64C176.898 101.64 177.425 101.353 177.825 100.78C178.225 100.207 178.465 99.5333 178.545 98.76H179.065C178.985 99.68 178.685 100.493 178.165 101.2C177.645 101.893 176.872 102.24 175.845 102.24ZM182.22 101.52H183.34C183.46 101.52 183.54 101.5 183.58 101.46C183.634 101.407 183.66 101.32 183.66 101.2V93.32C183.66 93.1867 183.634 93.1 183.58 93.06C183.54 93.02 183.46 93 183.34 93C183.047 93 182.76 93.1667 182.48 93.5C182.214 93.82 181.994 94.1933 181.82 94.62C181.634 95.0733 181.494 95.4733 181.4 95.82C181.32 96.1667 181.274 96.3867 181.26 96.48H180.7L180.82 92.52H188.82L188.94 96.48H188.38C188.367 96.3867 188.314 96.1667 188.22 95.82C188.14 95.4733 188.007 95.0733 187.82 94.62C187.647 94.1933 187.42 93.82 187.14 93.5C186.874 93.1667 186.594 93 186.3 93C186.18 93 186.094 93.02 186.04 93.06C186 93.1 185.98 93.1867 185.98 93.32V101.2C185.98 101.32 186 101.407 186.04 101.46C186.094 101.5 186.18 101.52 186.3 101.52H187.42V102H182.22V101.52ZM193.228 102.24C192.495 102.24 191.868 102.06 191.348 101.7C190.841 101.34 190.588 100.733 190.588 99.88C190.588 99.0133 190.901 98.3333 191.528 97.84C192.168 97.3333 192.975 96.9133 193.948 96.58L195.428 96.06V94.7C195.428 94.02 195.288 93.5267 195.008 93.22C194.728 92.9133 194.368 92.76 193.928 92.76C193.555 92.76 193.228 92.8467 192.948 93.02C192.681 93.18 192.548 93.4067 192.548 93.7C192.548 93.78 192.568 93.88 192.608 94C192.661 94.1067 192.748 94.2 192.868 94.28C193.068 94.4 193.208 94.5267 193.288 94.66C193.381 94.7933 193.428 94.9667 193.428 95.18C193.428 95.5 193.308 95.7533 193.068 95.94C192.841 96.1133 192.588 96.2 192.308 96.2C191.961 96.2 191.661 96.0867 191.408 95.86C191.168 95.62 191.048 95.28 191.048 94.84C191.048 94.3333 191.201 93.8867 191.508 93.5C191.815 93.1 192.208 92.8 192.688 92.6C193.168 92.3867 193.655 92.28 194.148 92.28C195.108 92.28 195.948 92.54 196.668 93.06C197.388 93.5667 197.748 94.38 197.748 95.5V100.56C197.748 101.04 197.881 101.28 198.148 101.28C198.388 101.28 198.568 101.08 198.688 100.68C198.808 100.28 198.868 99.82 198.868 99.3H199.428C199.428 100.273 199.281 100.987 198.988 101.44C198.841 101.68 198.635 101.873 198.368 102.02C198.101 102.167 197.795 102.24 197.448 102.24C196.901 102.24 196.488 102.16 196.208 102C195.928 101.827 195.695 101.547 195.508 101.16H195.468C194.935 101.88 194.188 102.24 193.228 102.24ZM194.208 101.44C194.728 101.44 195.135 101.147 195.428 100.56V96.6L194.308 97C193.868 97.16 193.541 97.4667 193.328 97.92C193.128 98.36 193.028 98.9533 193.028 99.7C193.028 100.353 193.148 100.807 193.388 101.06C193.628 101.313 193.901 101.44 194.208 101.44ZM200.624 101.52H201.384C201.504 101.52 201.584 101.5 201.624 101.46C201.678 101.407 201.704 101.32 201.704 101.2V93.32C201.704 93.2 201.678 93.12 201.624 93.08C201.584 93.0267 201.504 93 201.384 93H200.624V92.52H205.444C206.338 92.52 207.044 92.7267 207.564 93.14C208.098 93.54 208.364 94.0933 208.364 94.8C208.364 95.4 208.131 95.88 207.664 96.24C207.198 96.5867 206.618 96.8067 205.924 96.9V96.98C206.844 97.0467 207.578 97.3 208.124 97.74C208.671 98.18 208.944 98.78 208.944 99.54C208.944 100.247 208.664 100.833 208.104 101.3C207.544 101.767 206.858 102 206.044 102H200.624V101.52ZM204.964 96.76C205.364 96.76 205.644 96.5933 205.804 96.26C205.964 95.9133 206.044 95.4467 206.044 94.86C206.044 94.26 205.951 93.8 205.764 93.48C205.578 93.16 205.311 93 204.964 93H204.344C204.224 93 204.138 93.0267 204.084 93.08C204.044 93.12 204.024 93.2 204.024 93.32V96.76H204.964ZM205.104 101.52C205.518 101.52 205.831 101.32 206.044 100.92C206.271 100.507 206.384 99.9867 206.384 99.36C206.384 98.7467 206.278 98.2533 206.064 97.88C205.851 97.5067 205.531 97.32 205.104 97.32H204.024V101.2C204.024 101.32 204.044 101.407 204.084 101.46C204.138 101.5 204.224 101.52 204.344 101.52H205.104ZM225.224 105.12C225.211 105.027 225.158 104.807 225.064 104.46C224.971 104.127 224.851 103.813 224.704 103.52C224.491 103.08 224.244 102.713 223.964 102.42C223.684 102.14 223.311 102 222.844 102H210.624V101.52H211.384C211.504 101.52 211.584 101.5 211.624 101.46C211.678 101.407 211.704 101.32 211.704 101.2V93.32C211.704 93.2 211.678 93.12 211.624 93.08C211.584 93.0267 211.504 93 211.384 93H210.624V92.52H214.984V93H214.344C214.224 93 214.138 93.0267 214.084 93.08C214.044 93.12 214.024 93.2 214.024 93.32V101.2C214.024 101.32 214.044 101.407 214.084 101.46C214.138 101.5 214.224 101.52 214.344 101.52H216.344C216.464 101.52 216.544 101.5 216.584 101.46C216.638 101.407 216.664 101.32 216.664 101.2V93.32C216.664 93.2 216.638 93.12 216.584 93.08C216.544 93.0267 216.464 93 216.344 93H215.704V92.52H219.944V93H219.304C219.184 93 219.098 93.0267 219.044 93.08C219.004 93.12 218.984 93.2 218.984 93.32V101.2C218.984 101.32 219.004 101.407 219.044 101.46C219.098 101.5 219.184 101.52 219.304 101.52H221.304C221.424 101.52 221.504 101.5 221.544 101.46C221.598 101.407 221.624 101.32 221.624 101.2V93.32C221.624 93.2 221.598 93.12 221.544 93.08C221.504 93.0267 221.424 93 221.304 93H220.664V92.52H225.024V93H224.264C224.144 93 224.058 93.0267 224.004 93.08C223.964 93.12 223.944 93.2 223.944 93.32V100.88C223.944 101.12 223.991 101.3 224.084 101.42C224.191 101.54 224.358 101.6 224.584 101.6H225.664L225.784 105.12H225.224ZM227.03 101.52H227.79C227.91 101.52 227.99 101.5 228.03 101.46C228.084 101.407 228.11 101.32 228.11 101.2V93.32C228.11 93.2 228.084 93.12 228.03 93.08C227.99 93.0267 227.91 93 227.79 93H227.03V92.52H231.39V93H230.75C230.63 93 230.544 93.0267 230.49 93.08C230.45 93.12 230.43 93.2 230.43 93.32V99.64L233.47 93.68V93.32C233.47 93.2 233.444 93.12 233.39 93.08C233.35 93.0267 233.27 93 233.15 93H232.51V92.52H236.87V93H236.11C235.99 93 235.904 93.0267 235.85 93.08C235.81 93.12 235.79 93.2 235.79 93.32V101.2C235.79 101.32 235.81 101.407 235.85 101.46C235.904 101.5 235.99 101.52 236.11 101.52H236.87V102H232.51V101.52H233.15C233.27 101.52 233.35 101.5 233.39 101.46C233.444 101.407 233.47 101.32 233.47 101.2V94.88L230.43 100.84V101.2C230.43 101.32 230.45 101.407 230.49 101.46C230.544 101.5 230.63 101.52 230.75 101.52H231.39V102H227.03V101.52ZM245.976 102.24C245.322 102.24 244.802 102.073 244.416 101.74C244.029 101.393 243.836 100.893 243.836 100.24V98.66C243.836 98.2867 243.749 97.9933 243.576 97.78C243.402 97.5533 243.182 97.44 242.916 97.44H241.876V101.2C241.876 101.32 241.896 101.407 241.936 101.46C241.989 101.5 242.076 101.52 242.196 101.52H242.836V102H238.476V101.52H239.236C239.356 101.52 239.436 101.5 239.476 101.46C239.529 101.407 239.556 101.32 239.556 101.2V93.32C239.556 93.2 239.529 93.12 239.476 93.08C239.436 93.0267 239.356 93 239.236 93H238.476V92.52H242.836V93H242.196C242.076 93 241.989 93.0267 241.936 93.08C241.896 93.12 241.876 93.2 241.876 93.32V96.88H243.136C243.416 96.88 243.622 96.7733 243.756 96.56C243.889 96.3467 243.956 96.0667 243.956 95.72V94.36C243.956 93.6933 244.129 93.18 244.476 92.82C244.836 92.46 245.262 92.28 245.756 92.28C246.236 92.28 246.616 92.42 246.896 92.7C247.176 92.98 247.316 93.3533 247.316 93.82C247.316 94.1933 247.182 94.5067 246.916 94.76C246.662 95 246.382 95.12 246.076 95.12C245.782 95.12 245.536 95.04 245.336 94.88C245.136 94.7067 245.036 94.4733 245.036 94.18C245.036 94.0067 245.102 93.82 245.236 93.62C245.342 93.4733 245.396 93.3533 245.396 93.26C245.396 93.14 245.329 93.08 245.196 93.08C245.009 93.08 244.849 93.1867 244.716 93.4C244.582 93.6 244.516 93.9133 244.516 94.34V95.72C244.516 96.0267 244.476 96.28 244.396 96.48C244.316 96.6667 244.176 96.8267 243.976 96.96V97.06C244.669 97.1533 245.202 97.3933 245.576 97.78C245.962 98.1667 246.156 98.76 246.156 99.56V100.86C246.156 101.22 246.302 101.4 246.596 101.4C246.836 101.4 247.009 101.22 247.116 100.86C247.222 100.487 247.276 100.027 247.276 99.48H247.796C247.796 100.36 247.662 101.04 247.396 101.52C247.142 102 246.669 102.24 245.976 102.24ZM249.003 101.52H249.763C249.883 101.52 249.963 101.5 250.003 101.46C250.056 101.407 250.083 101.32 250.083 101.2V93.32C250.083 93.2 250.056 93.12 250.003 93.08C249.963 93.0267 249.883 93 249.763 93H249.003V92.52H253.363V93H252.723C252.603 93 252.516 93.0267 252.463 93.08C252.423 93.12 252.403 93.2 252.403 93.32V99.64L255.443 93.68V93.32C255.443 93.2 255.416 93.12 255.363 93.08C255.323 93.0267 255.243 93 255.123 93H254.483V92.52H258.843V93H258.083C257.963 93 257.876 93.0267 257.823 93.08C257.783 93.12 257.763 93.2 257.763 93.32V101.2C257.763 101.32 257.783 101.407 257.823 101.46C257.876 101.5 257.963 101.52 258.083 101.52H258.843V102H254.483V101.52H255.123C255.243 101.52 255.323 101.5 255.363 101.46C255.416 101.407 255.443 101.32 255.443 101.2V94.88L252.403 100.84V101.2C252.403 101.32 252.423 101.407 252.463 101.46C252.516 101.5 252.603 101.52 252.723 101.52H253.363V102H249.003V101.52Z" fill="white"/>
<path d="M186 20.3334L163.5 2.54175M126 20.3334L148.5 2.54175M141 38.1251V50.8334M171 38.1251V50.8334M156 38.1251V50.8334M118.5 30.5001H193.5L186 58.4584H126L118.5 30.5001ZM114.75 20.3334H197.25V30.5001H114.75V20.3334Z" stroke="white" stroke-width="4"/>
</svg>
